<svg xmlns="http://www.w3.org/2000/svg" viewBox="0 0 100 100" fill="#B76E79">
  <path d="M50 20c-8 0-15 7-15 15 0 12 15 25 15 25s15-13 15-25c0-8-7-15-15-15z" fill="#4CAF50"/>
  <circle cx="50" cy="35" r="5" fill="white"/>
  <path d="M30 50c-5 0-10 5-10 10s5 10 10 10 10-5 10-10-5-10-10-10z" fill="#8BC34A"/>
  <path d="M70 50c-5 0-10 5-10 10s5 10 10 10 10-5 10-10-5-10-10-10z" fill="#8BC34A"/>
  <path d="M50 65c-5 0-10 5-10 10s5 10 10 10 10-5 10-10-5-10-10-10z" fill="#4CAF50"/>
  <text x="50" y="95" text-anchor="middle" font-family="Arial" font-size="8" fill="#B76E79">オーガニック</text>
</svg> 